# xmcd
#
# Track frame offsets:
#	183
#	16590
#	29058
#	38805
#	51818
#	63390
#	75470
#	85915
#	95613
#	108233
#	121323
#	132355
#
# Disc length: 1992 seconds
#
# Revision: 1
# Processed by: cddbd v1.5.2PL0 Copyright (c) Steve Scherf et al.
# Submitted via: audiograbber 1.83.01
#
DISCID=9307c60c
DTITLE=Verschiedene Interpreten - La Paloma und andere Lieder von Liebe und Mee
DTITLE=r
DYEAR=1990
DGENRE=Seemannslieder
TTITLE0=Freddy Quinn - Hamburg - Schönes Mädchen
TTITLE1=Lale Andersen - Wie schön ist die Welt
TTITLE2=Kenneth Spencer - What Shall We Do With The Drunken Sailor
TTITLE3=Solid Gold - Sag' nur Goodbye, me love
TTITLE4=Ulla Norden - In der kleinen Hafenstadt
TTITLE5=Franco Aturo - Lucky Boys
TTITLE6=Will Höhne - Es singt das Meer
TTITLE7=Lord Dixie - Crazy Captain
TTITLE8=Jan von Balzers - Jeder Tag ist ein Tag
TTITLE9=Johnny Guitarro - Blue Sea
TTITLE10=Fortunella - Die kleine Hafenlaterne
TTITLE11=Billy Vaughn - La Paloma
EXTD=
EXTT0=
EXTT1=
EXTT2=
EXTT3=
EXTT4=
EXTT5=
EXTT6=
EXTT7=
EXTT8=
EXTT9=
EXTT10=
EXTT11=
PLAYORDER=
